:FULLY-SPECIFIED
:FORCE-ALL-JOINTS-BE-3DOF
:DEGREES
1529
root -4.40603 15.321 19.7494 -172.169 -23.4696 -176.469
lfemur -39.727 16.9508 -6.65055
ltibia 78.3996 -0 0
lfoot -16.5698 26.7835 -0.0374909
ltoes -16.484 0 0
rfemur -34.786 -8.43824 16.6408
rtibia 61.3082 -0 0
rfoot -16.8588 -22.2267 -0.00564475
rtoes -28.8145 0 0
lowerback 16.6775 0.519773 3.58708
upperback -1.175 1.64042 3.36171
thorax -10.6948 0.63313 1.22355
lowerneck -4.69189 5.2583 2.57367
upperneck 1.33254 7.03828 -6.56556
head 1.60897 3.40219 -2.31731
lclavicle 2.38542e-15 7.15625e-15 0
lhumerus -3.55521 -6.90359 78.6522
lradius 62.2174 -0 0
lwrist -19.7844 0 0
lhand -30.7404 67.5499 -0.298675
lfingers 7.12502 -0 0
lthumb -4.71511 -80.7994 1.64457
rclavicle 2.38542e-15 7.15625e-15 0
rhumerus -55.6209 30.2635 -91.1316
rradius 104.649 -0 0
rwrist -56 0 0
rhand 6.79112 -29.8455 0.0408319
rfingers 7.12502 -0 0
rthumb 32.0747 -57.0141 0.0462652
1530
root -4.35928 15.3226 19.7656 -172.198 -25.9499 -176.308
lfemur -38.9193 17.4667 -5.6117
ltibia 78.2991 -0 0
lfoot -16.928 26.9735 -0.025953
ltoes -16.1312 0 0
rfemur -34.2677 -8.84214 16.5126
rtibia 61.0618 -0 0
rfoot -16.8303 -22.5863 -0.00390763
rtoes -29.5842 0 0
lowerback 16.5105 0.521324 3.55761
upperback -1.18668 1.62351 3.43257
thorax -10.6152 0.624414 1.32572
lowerneck -4.73063 5.09459 2.49705
upperneck 1.18409 6.80056 -6.4063
head 1.53827 3.28292 -2.26188
lclavicle 2.38542e-15 7.15625e-15 0
lhumerus -5.78797 -3.40751 78.1813
lradius 59.3501 -0 0
lwrist -21.8314 0 0
lhand -31.1387 68.8899 -0.206573
lfingers 7.12502 -0 0
lthumb -4.93243 -87.7862 1.10693
rclavicle 2.38542e-15 7.15625e-15 0
rhumerus -56.7399 28.9549 -91.8793
rradius 104.67 -0 0
rwrist -57.2183 0 0
rhand 7.07695 -29.5862 0.028266
rfingers 7.12502 -0 0
rthumb 32.3475 -56.7063 0.0320269
1531
root -4.32086 15.3239 19.7776 -172.227 -27.9809 -176.172
lfemur -38.2489 17.8787 -4.75318
ltibia 78.2167 -0 0
lfoot -17.2213 27.129 -0.0156204
ltoes -15.8423 0 0
rfemur -33.8422 -9.17202 16.4047
rtibia 60.86 -0 0
rfoot -16.807 -22.8808 -0.00235193
rtoes -30.2145 0 0
lowerback 16.3738 0.522531 3.53347
upperback -1.19626 1.60967 3.49061
thorax -10.5501 0.617171 1.40937
lowerneck -4.76218 4.9605 2.4344
upperneck 1.06208 6.60619 -6.27549
head 1.4803 3.1853 -2.21639
lclavicle 2.38542e-15 7.15625e-15 0
lhumerus -7.63401 -0.560002 77.6953
lradius 57.002 -0 0
lwrist -23.5077 0 0
lhand -31.4632 69.9868 -0.124231
lfingers 7.12502 -0 0
lthumb -5.06057 -93.5053 0.649585
rclavicle 2.38542e-15 7.15625e-15 0
rhumerus -57.6316 27.8742 -92.4631
rradius 104.687 -0 0
rwrist -58.2159 0 0
rhand 7.31098 -29.3739 0.0170126
rfingers 7.12502 -0 0
rthumb 32.5708 -56.4543 0.019276
1532
root -4.29193 15.3247 19.7858 -172.253 -29.5041 -176.068
lfemur -37.7409 18.1813 -4.10468
ltibia 78.155 -0 0
lfoot -17.4412 27.2456 -0.00734865
ltoes -15.6256 0 0
rfemur -33.5224 -9.4189 16.3221
rtibia 60.7087 -0 0
rfoot -16.7895 -23.1017 -0.00110649
rtoes -30.6872 0 0
lowerback 16.2712 0.523398 3.51537
upperback -1.20346 1.5993 3.53414
thorax -10.5013 0.611676 1.47211
lowerneck -4.78575 4.8599 2.38747
upperneck 0.97031 6.4606 -6.17713
head 1.43677 3.11212 -2.1822
lclavicle 2.38542e-15 7.15625e-15 0
lhumerus -9.03476 1.56449 77.2706
lradius 55.2409 -0 0
lwrist -24.765 0 0
lhand -31.7054 70.8092 -0.0584078
lfingers 7.12502 -0 0
lthumb -5.1264 -97.7937 0.299437
rclavicle 2.38542e-15 7.15625e-15 0
rhumerus -58.2864 27.0586 -92.8847
rradius 104.699 -0 0
rwrist -58.9642 0 0
rhand 7.48648 -29.2148 0.00800369
rfingers 7.12502 -0 0
rthumb 32.7382 -56.2654 0.00906846
1533
root -4.27371 15.3252 19.7904 -172.271 -30.461 -176.001
lfemur -37.4194 18.3686 -3.69528
ltibia 78.1162 -0 0
lfoot -17.5794 27.3188 -0.00192346
ltoes -15.4895 0 0
rfemur -33.3212 -9.57377 16.2695
rtibia 60.6136 -0 0
rfoot -16.7785 -23.2405 -0.000289618
rtoes -30.9842 0 0
lowerback 16.2068 0.523926 3.504
upperback -1.20798 1.59279 3.56148
thorax -10.4706 0.608197 1.51152
lowerneck -4.80051 4.7967 2.35802
upperneck 0.912546 6.36922 -6.11524
head 1.40941 3.06615 -2.1607
lclavicle 2.38542e-15 7.15625e-15 0
lhumerus -9.92374 2.89352 76.977
lradius 54.1346 -0 0
lwrist -25.5548 0 0
lhand -31.8572 71.3256 -0.0152815
lfingers 7.12502 -0 0
lthumb -5.15428 -100.487 0.077331
rclavicle 2.38542e-15 7.15625e-15 0
rhumerus -58.6919 26.544 -93.1427
rradius 104.707 -0 0
rwrist -59.4342 0 0
rhand 7.59671 -29.1148 0.00209492
rfingers 7.12502 -0 0
rthumb 32.8434 -56.1467 0.00237361
1534
root -4.53833 15.3792 20.0803 -172.278 -30.793 -175.978
lfemur -37.3075 18.4331 -3.55288
ltibia 78.1027 0 0
lfoot -17.6273 27.3442 0
ltoes -15.4423 0 0
rfemur -33.2513 -9.62745 16.2511
rtibia 60.5806 0 0
rfoot -16.7747 -23.2886 0
rtoes -31.0872 0 0
lowerback 16.1844 0.524106 3.50005
upperback -1.20955 1.59053 3.57097
thorax -10.46 0.606985 1.52519
lowerneck -4.80562 4.77477 2.3478
upperneck 0.892484 6.33753 -6.09375
head 1.39991 3.05021 -2.15324
lclavicle 5.80451e-14 4.37326e-14 0
lhumerus -10.234 3.35353 76.8702
lradius 53.7508 0 0
lwrist -25.8288 0 0
lhand -31.9097 71.5048 0
lfingers 7.12502 0 0
lthumb -5.16151 -101.422 0
rclavicle 5.80451e-14 4.37326e-14 0
rhumerus -58.8316 26.3651 -93.231
rradius 104.71 0 0
rwrist -59.5973 0 0
rhand 7.63495 -29.0801 0
rfingers 7.12502 0 0
rthumb 32.8799 -56.1055 0
1535
root -4.58241 15.3871 20.1201 -172.221 -32.0758 -176.354
lfemur -36.9881 18.2316 -4.00395
ltibia 77.3199 -0 0
lfoot -17.5566 27.0489 -0.00630109
ltoes -16.1682 0 0
rfemur -33.6135 -9.76601 16.0995
rtibia 61.561 -0 0
rfoot -16.6159 -23.0598 0.010957
rtoes -30.2746 0 0
lowerback 16.2061 0.495432 3.23655
upperback -1.19498 1.50206 3.54114
thorax -10.449 0.580064 1.66511
lowerneck -4.82874 4.57282 2.1587
upperneck 0.954768 6.07899 -5.95153
head 1.41323 2.92093 -2.08485
lclavicle 5.80451e-14 4.37326e-14 0
lhumerus -9.99487 2.68475 77.0016
lradius 53.8513 -0 0
lwrist -25.1036 0 0
lhand -31.6924 70.4839 -0.0690641
lfingers 7.12502 -0 0
lthumb -5.11175 -96.7361 0.31285
rclavicle 5.80451e-14 4.37326e-14 0
rhumerus -58.7751 26.4258 -93.3768
rradius 105.028 -0 0
rwrist -59.4827 0 0
rhand 7.5652 -28.9934 -0.00182085
rfingers 7.12502 -0 0
rthumb 32.8135 -56.0319 -0.00147164
1536
root -4.63642 15.3953 20.157 -172.131 -33.7266 -176.848
lfemur -36.5749 17.9758 -4.58561
ltibia 76.3121 -0 0
lfoot -17.4655 26.6688 -0.0138761
ltoes -17.1027 0 0
rfemur -34.0795 -9.94578 15.9055
rtibia 62.823 -0 0
rfoot -16.4114 -22.7653 0.0241288
rtoes -29.2285 0 0
lowerback 16.2343 0.458665 2.89732
upperback -1.17616 1.38818 3.50272
thorax -10.4349 0.545368 1.84523
lowerneck -4.8575 4.31274 1.91545
upperneck 1.03396 5.74592 -5.76895
head 1.43014 2.75447 -1.99686
lclavicle 5.80451e-14 4.37326e-14 0
lhumerus -9.68945 1.823 77.1666
lradius 53.9806 -0 0
lwrist -24.1701 0 0
lhand -31.4108 69.1692 -0.152253
lfingers 7.12502 -0 0
lthumb -5.01037 -90.703 0.707783
rclavicle 5.80451e-14 4.37326e-14 0
rhumerus -58.7025 26.5042 -93.5645
rradius 105.438 -0 0
rwrist -59.3353 0 0
rhand 7.4754 -28.8817 -0.0040095
rfingers 7.12502 -0 0
rthumb 32.7279 -55.9372 -0.00324052
1537
root -4.69911 15.4037 20.1913 -171.999 -35.7008 -177.456
lfemur -36.0778 17.675 -5.28297
ltibia 75.1064 -0 0
lfoot -17.3565 26.214 -0.0221448
ltoes -18.2208 0 0
rfemur -34.6365 -10.1629 15.6752
rtibia 64.333 -0 0
rfoot -16.1667 -22.4129 0.0385064
rtoes -27.977 0 0
lowerback 16.2683 0.414897 2.49143
upperback -1.15354 1.25194 3.45669
thorax -10.4183 0.503798 2.06071
lowerneck -4.89045 4.00141 1.6247
upperneck 1.12724 5.34711 -5.55125
head 1.45004 2.55529 -1.89166
lclavicle 5.80451e-14 4.37326e-14 0
lhumerus -9.32742 0.790839 77.358
lradius 54.1353 -0 0
lwrist -23.0532 0 0
lhand -31.0716 67.5958 -0.243262
lfingers 7.12502 -0 0
lthumb -4.83538 -83.483 1.16305
rclavicle 5.80451e-14 4.37326e-14 0
rhumerus -58.616 26.5982 -93.789
rradius 105.928 -0 0
rwrist -59.1588 0 0
rhand 7.36795 -28.7482 -0.00639815
rfingers 7.12502 -0 0
rthumb 32.6256 -55.8238 -0.00517104
1538
root -4.76925 15.4123 20.2229 -171.811 -37.9532 -178.178
lfemur -35.5066 17.3386 -6.08111
ltibia 73.7298 -0 0
lfoot -17.2319 25.6946 -0.0305272
ltoes -19.4974 0 0
rfemur -35.2719 -10.4135 15.4148
rtibia 66.0571 -0 0
rfoot -15.8871 -22.0104 0.0530811
rtoes -26.548 0 0
lowerback 16.3075 0.365219 2.02797
upperback -1.12758 1.09641 3.40408
thorax -10.3994 0.456258 2.30673
lowerneck -4.92612 3.64573 1.29307
upperneck 1.23182 4.89132 -5.30364
head 1.4723 2.32781 -1.77166
lclavicle 5.80451e-14 4.37326e-14 0
lhumerus -8.91831 -0.389112 77.5684
lradius 54.312 -0 0
lwrist -21.7779 0 0
lhand -30.6814 65.7986 -0.335737
lfingers 7.12502 -0 0
lthumb -4.56744 -75.2359 1.65116
rclavicle 5.80451e-14 4.37326e-14 0
rhumerus -58.5177 26.706 -94.0455
rradius 106.488 -0 0
rwrist -58.9573 0 0
rhand 7.24527 -28.5957 -0.0088192
rfingers 7.12502 -0 0
rthumb 32.5087 -55.6944 -0.00712773
